<?xml version="1.0" encoding="utf-8"?>
<!-- Generator: Adobe Illustrator 28.0.0, SVG Export Plug-In . SVG Version: 6.00 Build 0)  -->
<svg version="1.0" id="Layer_1" xmlns="http://www.w3.org/2000/svg" xmlns:xlink="http://www.w3.org/1999/xlink" x="0px" y="0px"
	 viewBox="0 0 256 256" style="enable-background:new 0 0 256 256;" xml:space="preserve">
<style type="text/css">
	.st0{fill:#D92230;}
	.st1{fill:#FFFFFF;}
</style>
<rect class="st0" width="256" height="256"/>
<g>
	<path class="st1" d="M143.9065247,104.6412201c-1.6414642-0.3180618-4.3099823-0.4359589-6.5674896-0.4359589
		c-2.2574921,0-9.4413834-0.5467682-15.2567291,4.5158997c-5.8152618,5.0626755-4.7204666,14.2990417-4.7204666,14.2990417
		v25.3128052c0,0-0.2054672,2.9418182,2.1891327,2.9418182h7.2518921c2.3945999,0,2.1891251-2.9418182,2.1891251-2.9418182
		v-23.3290482c0-6.9096909,0.3496552-8.3059464,2.8739014-10.3991699c2.7009125-2.2399216,9.3665619-1.484726,11.1513062-1.3686218
		c0.9590454,0.0631638,1.2968445-1.311203,1.2968445-1.311203s0.7079163-3.2528763,0.8805389-4.7481003
		C145.3912506,105.4713364,145.5489807,104.9583893,143.9065247,104.6412201z"/>
	<path class="st1" d="M179.5312958,127.4800262c0,6.1969452-1.918869,15.5547028-11.1824493,15.5547028
		c-9.2631073,0-11.1819916-9.3577576-11.1819916-15.5547028c0-6.1977463,1.9188843-14.4440384,11.1819916-14.4440384
		C177.6124268,113.0359879,179.5312958,121.28228,179.5312958,127.4800262z M168.3488464,104.3699951
		c-14.0042114,0-23.5823364,10.5953903-23.5823364,23.6655884c0,13.0697632,9.578125,23.6642609,23.5823364,23.6642609
		c14.0046692,0,23.5827789-10.5944977,23.5827789-23.6642609
		C191.9316254,114.9653854,182.3535156,104.3699951,168.3488464,104.3699951z"/>
	<path class="st1" d="M62.8323174,149.3283844c0,0-1.0636597-4.1654358-6.8080368-12.4699554
		c-3.2909126-4.756897-6.2042961-7.8148041-8.2239418-9.6429901c2.0205421-1.70858,4.7647896-4.4103012,7.2908287-8.1481323
		c4.7481041-7.0266876,6.2708702-11.2175293,6.6319122-12.1405869c0.3614006-0.9230652,0.5677643-2.2854996-1.0838432-2.2854996
		c-1.7602615,0-1.2771072,0-8.2392883,0c0,0-0.7285423-0.0180283-1.0133133,0.7074661
		c-0.102562,0.2610855-0.1998215,0.4101181-0.4622574,1.0133209c-0.9010811,2.0722275-5.3784904,9.8445053-9.1351624,13.9849167
		c-4.0768929-4.1987305-8.2672806-13.592392-8.7378731-14.5601273c-0.5725174-1.1793213-1.3142529-1.1455765-1.3142529-1.1455765
		H21.4913445c-1.5842266,0-0.9099541,2.0222549-0.9099541,2.0222549s1.0562019,4.2688065,6.5136471,12.764328
		c2.45858,3.8272018,4.6981277,6.7515182,6.4829731,8.8693314c-2.0775185,1.6318665-5.1261826,4.4300385-7.865593,8.5091705
		c-4.7187634,7.0270386-6.1036167,11.3353119-6.4624252,12.2587433c-0.3592491,0.9235229-0.5647125,2.2860413,1.0772953,2.2860413
		c1.7488766,0,1.6161671,0,8.5354691,0c0,0,0.7097034-0.0648651,0.9681835-0.6233978
		c0.1173553-0.2549896,0.2369556-0.4946442,0.4981365-1.0982819c0.9931374-2.2965393,6.0728512-11.5938263,9.924181-15.1880035
		c4.4545326,3.1730957,9.5860176,14.6868134,10.1091003,15.7636566c0.5730553,1.179306,1.3142509,1.1460266,1.3142509,1.1460266
		h10.2458344C63.5065804,151.3510895,62.8323174,149.3283844,62.8323174,149.3283844z"/>
	<path class="st1" d="M236.8576355,149.3283844c0,0-1.0645599-4.1654358-6.8089294-12.4699554
		c-3.2901154-4.756897-6.2042999-7.8148041-8.2248383-9.6429901c2.0222473-1.70858,4.7664948-4.4103012,7.2917175-8.1481323
		c4.7489166-7.0266876,6.270874-11.2175293,6.6319122-12.1405869c0.3618622-0.9230652,0.5686646-2.2854996-1.0838318-2.2854996
		c-1.7594604,0-1.2766724,0-8.2397461,0c0,0-0.7280884-0.0180283-1.0128632,0.7074661
		c-0.1025543,0.2610855-0.1998138,0.4101181-0.4618073,1.0133209c-0.9016266,2.0722275-5.3789368,9.8445053-9.1351624,13.9849167
		c-4.0769806-4.1987305-8.2678223-13.592392-8.738327-14.5601273c-0.5729675-1.1793213-1.3142548-1.1455765-1.3142548-1.1455765
		h-10.2453766c-1.5832214,0-0.9103088,2.0222549-0.9103088,2.0222549s1.0557404,4.2688065,6.5136414,12.764328
		c2.4585876,3.8272018,4.6981354,6.7515182,6.4828796,8.8693314c-2.0774231,1.6318665-5.1265411,4.4300385-7.8646851,8.5091705
		c-4.719223,7.0270386-6.1044312,11.3353119-6.4627991,12.2587433c-0.3592377,0.9235229-0.565155,2.2860413,1.0768585,2.2860413
		c1.7497711,0,1.6165161,0,8.5359039,0c0,0,0.7097015-0.0648651,0.9673004-0.6233978
		c0.1182556-0.2549896,0.2373962-0.4946442,0.4984894-1.0982819c0.9927826-2.2965393,6.072937-11.5938263,9.9247284-15.1880035
		c4.4536285,3.1730957,9.585556,14.6868134,10.1086426,15.7636566c0.5729828,1.179306,1.315155,1.1460266,1.315155,1.1460266
		h10.245285C237.5314484,151.3510895,236.8576355,149.3283844,236.8576355,149.3283844z"/>
	<path class="st1" d="M105.9699783,147.5422821c-4.3511734,3.0386353-12.4345093,4.2697144-18.3895645,4.2697144
		c-12.3096313,0-22.7402954-9.2772064-22.7402954-23.0693054c0-12.3097153,8.9481888-24.3818512,22.2890778-24.3818512
		c17.2807846,0,22.2886276,10.9182053,22.2886276,24.3818512c0,0-0.0819168,3.1196442-1.3953552,3.1196442H77.1545944
		c0,0,0.1805191,4.9593048,3.694046,7.7170868c2.9295349,2.3000488,6.2323761,3.7781219,12.3140182,3.2015686
		c5.3067169-0.5028839,9.5772247-3.4635468,9.5772247-3.4635468s1.3418884-0.9690857,2.162941,1.0005798
		c0.8209534,1.9705811,1.8882141,4.8441162,1.8882141,4.8441162S107.5585098,146.4338531,105.9699783,147.5422821z
		 M77.0591278,123.6016006h21.1259155c0,0,0.341217-11.2179718-10.1932526-10.5340195
		C77.4577637,113.7500992,77.0591278,123.6016006,77.0591278,123.6016006z"/>
</g>
</svg>
