<?xml version="1.0" encoding="iso-8859-1"?>
<!-- Uploaded to: SVG Repo, www.svgrepo.com, Generator: SVG Repo Mixer Tools -->
<svg fill="#000000" height="800px" width="800px" version="1.1" id="Layer_1" xmlns="http://www.w3.org/2000/svg" xmlns:xlink="http://www.w3.org/1999/xlink" 
	 viewBox="0 0 312.784 312.784" xml:space="preserve">
<g>
	<g>
		<g>
			<path d="M189.348,278.179c-1.92,0-3.476,1.556-3.476,3.476c0,1.92,1.556,3.476,3.476,3.476h16.496
				c1.92,0,3.476-1.556,3.476-3.476c0-1.92-1.556-3.476-3.476-3.476H189.348z"/>
			<path d="M91.908,252.691c0,1.92,1.556,3.476,3.476,3.476h31.652c1.92,0,3.476-1.556,3.476-3.476c0-1.92-1.556-3.476-3.476-3.476
				H95.384C93.464,249.215,91.908,250.771,91.908,252.691z"/>
			<path d="M133.304,252.691c0,1.92,1.556,3.476,3.476,3.476h94.436c1.92,0,3.476-1.556,3.476-3.476c0-1.92-1.556-3.476-3.476-3.476
				H136.78C134.856,249.215,133.304,250.771,133.304,252.691z"/>
			<path d="M125.568,234.619c1.92,0,3.476-1.556,3.476-3.476c0-1.92-1.556-3.476-3.476-3.476h-18.54
				c-1.92,0-3.476,1.556-3.476,3.476c0,1.92,1.556,3.476,3.476,3.476H125.568z"/>
			<path d="M135.336,231.143c0,1.92,1.556,3.476,3.476,3.476h45.028c1.92,0,3.476-1.556,3.476-3.476c0-1.92-1.556-3.476-3.476-3.476
				h-45.028C136.892,227.667,135.336,229.223,135.336,231.143z"/>
			<path d="M231.212,227.667h-38.348c-1.92,0-3.476,1.556-3.476,3.476c0,1.92,1.556,3.476,3.476,3.476h38.348
				c1.92,0,3.476-1.556,3.476-3.476C234.688,229.223,233.132,227.667,231.212,227.667z"/>
			<path d="M175.888,213.067c1.92,0,3.476-1.556,3.476-3.476c0-1.92-1.556-3.476-3.476-3.476h-30.056
				c-1.92,0-3.476,1.556-3.476,3.476c0,1.92,1.556,3.476,3.476,3.476H175.888z"/>
			<path d="M231.212,206.115h-46.06c-1.92,0-3.476,1.556-3.476,3.476c0,1.92,1.556,3.476,3.476,3.476h46.06
				c1.92,0,3.476-1.556,3.476-3.476C234.688,207.671,233.132,206.115,231.212,206.115z"/>
			<path d="M284.796,65.803H69.048l1.416-37.628c0-6.908,8.076-12.74,17.68-12.74l151.752-1.528
				c4.24-0.272,16.524,0.288,22.588,6.148c1.92,1.856,3.096,4.104,3.552,6.808H154.08c-1.92,0-3.476,1.556-3.476,3.476
				s1.556,3.476,3.476,3.476h99.892v22.48c0,1.92,1.556,3.476,3.476,3.476c1.92,0,3.476-1.556,3.476-3.476v-22.48h8.784
				c1.876,0,3.416-1.488,3.472-3.36c0.204-6.252-1.772-11.428-5.872-15.396c-9.504-9.196-27.128-8.12-27.68-8.096L88.104,8.479
				c-13.56,0-24.596,8.836-24.592,19.564l-1.424,37.756H27.992C12.56,65.799,0,78.355,0,93.791v52.552
				c0,15.432,12.56,27.992,27.992,27.992h14.28v1.792c0,10.668,9.864,19.344,21.992,19.344c1.348,0,2.432-1.088,2.432-2.432
				s-1.088-2.432-2.432-2.432c-9.44,0-17.128-6.496-17.128-14.476l0.008-1.792H254.38l-1.44,111.7c0,6.2-8.14,11.436-17.808,11.436
				l-152.64,1.408c-0.164,0.004-16.204,0.86-23.332-6.112c-1.516-1.48-2.488-3.216-2.94-5.248H168.8c1.92,0,3.476-1.556,3.476-3.476
				c0-1.92-1.556-3.476-3.476-3.476H68.28v-71.8c0-1.92-1.556-3.476-3.476-3.476s-3.476,1.556-3.476,3.476v71.796h-8.86
				c-1.872,0-3.404,1.484-3.472,3.352c-0.196,5.544,1.588,10.2,5.316,13.832c7.536,7.356,21.032,8.12,26.268,8.12
				c1.252,0,2.032-0.044,2.152-0.048l152.432-1.4c13.632,0,24.728-8.252,24.728-18.344l1.18-91.1
				c10.032-1.088,16.872-8.484,16.872-18.852v-1.792h6.848c15.432,0,27.992-12.556,27.992-27.992V93.795
				C312.788,78.359,300.228,65.803,284.796,65.803z M273.084,176.127c0,7.744-4.62,12.992-11.948,13.996l0.204-15.788h11.744
				V176.127z M305.84,146.335c0,11.6-9.436,21.04-21.04,21.04h-6.608l10.568-14.028c0.812-1.076,0.596-2.6-0.476-3.412
				c-1.076-0.8-2.596-0.588-3.412,0.48l-12.292,16.312c-0.148,0.2-0.228,0.424-0.308,0.644h-65.356l7.82-10.372
				c0.812-1.072,0.592-2.6-0.48-3.408c-1.072-0.804-2.596-0.592-3.408,0.48l-10.028,13.3h-30.756l5.988-7.936
				c0.804-1.076,0.596-2.6-0.476-3.412c-1.068-0.8-2.6-0.588-3.412,0.48l-8.048,10.684c-0.044,0.06-0.052,0.128-0.088,0.188H98.796
				l5.772-7.656c0.804-1.072,0.592-2.6-0.48-3.408c-1.072-0.804-2.596-0.592-3.408,0.48l-7.984,10.584h-64.7
				c-1.636,0-3.208-0.228-4.736-0.584l20.276-26.908c0.064-0.088,0.084-0.192,0.136-0.284c0.08-0.136,0.152-0.272,0.204-0.424
				c0.056-0.168,0.076-0.332,0.096-0.508c0.008-0.096,0.052-0.18,0.052-0.28c-0.004-0.056-0.028-0.096-0.032-0.148
				c-0.012-0.156-0.048-0.296-0.088-0.444c-0.044-0.164-0.088-0.32-0.16-0.464c-0.068-0.136-0.164-0.248-0.26-0.372
				c-0.08-0.1-0.152-0.2-0.252-0.284c-0.064-0.064-0.104-0.144-0.176-0.2c-0.148-0.112-0.32-0.156-0.484-0.228
				c-0.008-0.004-0.012-0.004-0.02-0.008c-0.256-0.112-0.512-0.176-0.784-0.196c-0.072-0.012-0.132-0.044-0.208-0.052l-16.632,0.208
				c-1.344,0.02-2.42,1.12-2.404,2.46c0.02,1.336,1.1,2.404,2.432,2.404h0.028l11.68-0.144l-18.156,24.1
				c-6.824-3.484-11.552-10.504-11.552-18.676V93.795c0-11.6,9.436-21.04,21.04-21.04H284.8c11.6,0,21.04,9.436,21.04,21.04v40.332
				h-0.004l-238.272,1.684c-1.34,0.008-2.42,1.108-2.412,2.452c0.008,1.336,1.096,2.412,2.432,2.412h0.02l8.42-0.06l-13.94,18.496
				c-0.812,1.072-0.596,2.6,0.48,3.408c0.44,0.332,0.952,0.488,1.464,0.488c0.736,0,1.464-0.332,1.944-0.968l16.18-21.468
				l30.924-0.22l-8.124,10.784c-0.808,1.076-0.596,2.596,0.476,3.404c0.44,0.332,0.952,0.492,1.464,0.492
				c0.732,0,1.464-0.336,1.94-0.968l9.736-12.912c0.196-0.26,0.328-0.548,0.404-0.848l30.808-0.216l-12.936,17.168
				c-0.808,1.072-0.592,2.6,0.48,3.408c0.44,0.332,0.952,0.488,1.464,0.488c0.736,0,1.464-0.332,1.944-0.968l13.992-18.568
				c0.352-0.468,0.476-1.024,0.452-1.568l29.552-0.208l-8.316,11.036c-0.812,1.076-0.596,2.6,0.48,3.412
				c0.44,0.328,0.952,0.488,1.464,0.488c0.736,0,1.464-0.336,1.944-0.968l10.556-14.012l30.924-0.216l-6.68,8.864
				c-0.808,1.072-0.596,2.596,0.476,3.404c0.444,0.336,0.952,0.492,1.464,0.492c0.732,0,1.464-0.332,1.94-0.968l8.056-10.684
				c0.26-0.348,0.38-0.748,0.432-1.152l29.26-0.204l-13.06,17.332c-0.812,1.076-0.596,2.6,0.476,3.412
				c0.444,0.328,0.952,0.488,1.464,0.488c0.736,0,1.464-0.336,1.944-0.968l15.304-20.308l42.984-0.304V146.335z"/>
			<path d="M275.168,125.471c7.456,0,13.524-6.068,13.524-13.524c0-7.456-6.068-13.524-13.524-13.524s-13.524,6.068-13.524,13.524
				C261.644,119.403,267.712,125.471,275.168,125.471z M275.168,103.291c4.772,0,8.656,3.884,8.656,8.656
				c0,4.772-3.884,8.656-8.656,8.656c-4.772,0-8.656-3.884-8.656-8.656C266.512,107.175,270.396,103.291,275.168,103.291z"/>
			<path d="M249.116,116.839c1.256,0,2.508-0.48,3.468-1.436c1.916-1.916,1.916-5.02,0-6.932c-0.96-0.96-2.212-1.436-3.468-1.436
				c-1.256,0-2.508,0.48-3.468,1.436c-1.916,1.912-1.916,5.016,0,6.932C246.604,116.359,247.86,116.839,249.116,116.839z"/>
		</g>
	</g>
</g>
</svg>