<?xml version="1.0" encoding="iso-8859-1"?>
<!-- Uploaded to: SVG Repo, www.svgrepo.com, Generator: SVG Repo Mixer Tools -->
<svg fill="#000000" version="1.1" id="Layer_1" xmlns="http://www.w3.org/2000/svg" xmlns:xlink="http://www.w3.org/1999/xlink" 
	 viewBox="0 0 511.998 511.998" xml:space="preserve">
<g>
	<g>
		<path d="M391.794,245.165v-31.826l101.196-81.987l-19.148-23.635l-82.048,66.474V64.404H316.36V0H155.935L92.698,74v41.067H60.818
			c-23.054,0-41.811,18.756-41.811,41.81v110.076c0,23.054,18.756,41.81,41.811,41.81h31.879v160.739v15.209v27.287h30.417v-27.287
			h238.262v27.287h30.417v-27.287v-15.209V284.313l101.196-81.987l-19.148-23.635L391.794,245.165z M92.698,278.348H60.818v-0.001
			c-6.282,0-11.393-5.111-11.393-11.392V156.879c0-6.282,5.111-11.393,11.393-11.393h31.879V278.348z M169.953,30.417h115.99v33.987
			H140.908L169.953,30.417z M361.377,454.294H123.115v-145.53V115.067V94.822h162.828h15.209h60.225V454.294z"/>
	</g>
</g>
<g>
	<g>
		<rect x="165.317" y="379.739" width="153.85" height="30.417"/>
	</g>
</g>
<g>
	<g>
		<rect x="165.317" y="329.043" width="153.85" height="30.417"/>
	</g>
</g>
<g>
	<g>
		<rect x="165.317" y="278.348" width="153.85" height="30.417"/>
	</g>
</g>
</svg>